<?xml version="1.0" encoding="utf-8"?>
<!-- Generator: Adobe Illustrator 23.0.5, SVG Export Plug-In . SVG Version: 6.00 Build 0)  -->
<svg version="1.1" id="Capa_1" xmlns="http://www.w3.org/2000/svg" xmlns:xlink="http://www.w3.org/1999/xlink" x="0px" y="0px"
	 viewBox="0 0 1771 2499.8" style="enable-background:new 0 0 1771 2499.8;" xml:space="preserve">
<style type="text/css">
	.st0{fill:#1572B6;}
	.st1{fill:#33A9DC;}
	.st2{fill:#FFFFFF;}
	.st3{fill:#EBEBEB;}
</style>
<path class="st0" d="M162.9,1795.4L1.7,89.3h1771l-161.4,1705.8l-725.2,189.7L162.9,1795.4z"/>
<path class="st1" d="M887.2,1868.3l586-155.5L1611,234.7H887.2L887.2,1868.3z"/>
<path class="st2" d="M887.2,889.6h293.4l20.2-227H887.2V441h556l-5.3,59.5l-54.5,611H887.2L887.2,889.6z"/>
<path class="st3" d="M888.4,1465.4h-1l-246.9-66.7l-15.8-176.8H402.3l31.1,348.1l454.2,126.4h1.3v-231L888.4,1465.4z"/>
<path class="st2" d="M1161.8,1101.8l-26.7,296.7l-247.3,66.7v231l454.5-126l3.3-37.5l38.6-431h-222.4V1101.8z"/>
<path class="st3" d="M888,441v221.7H352.6l-4.6-49.8l-10.1-112.4l-5.3-59.5L888,441z M887.2,889.6v221.7H643.1l-4.3-49.8
	l-10.1-112.4l-5.3-59.5L887.2,889.6L887.2,889.6z"/>
</svg>
