<?xml version="1.0" encoding="utf-8"?>
<!-- Generator: Adobe Illustrator 23.0.5, SVG Export Plug-In . SVG Version: 6.00 Build 0)  -->
<svg version="1.1"
	 id="svg6" xmlns:cc="http://creativecommons.org/ns#" xmlns:dc="http://purl.org/dc/elements/1.1/" xmlns:rdf="http://www.w3.org/1999/02/22-rdf-syntax-ns#" xmlns:svg="http://www.w3.org/2000/svg"
	 xmlns="http://www.w3.org/2000/svg" xmlns:xlink="http://www.w3.org/1999/xlink" x="0px" y="0px" viewBox="0 0 630 630"
	 style="enable-background:new 0 0 630 630;" xml:space="preserve">
<style type="text/css">
	.st0{fill:#6082BB;}
	.st1{fill:#FFFFFF;}
</style>
<rect id="rect2" class="st0" width="630" height="630"/>
<path id="path3494" class="st1" d="M320.9,345.7c-0.6,0-1.1-0.3-1.5-0.7c-0.4-0.5-0.5-1.1-0.4-1.7l8.1-43.1c0.8-4.1,0.6-7-0.5-8.3
	c-0.7-0.8-2.7-2-8.8-2H303l-10.2,54.1c-0.2,0.9-1,1.6-1.9,1.6h-20.4c-0.6,0-1.1-0.3-1.5-0.7c-0.4-0.5-0.5-1.1-0.4-1.7l18.4-97.3
	c0.2-0.9,1-1.6,1.9-1.6h20.4c0.6,0,1.1,0.3,1.5,0.7c0.4,0.5,0.5,1.1,0.4,1.7l-4.4,23.5h15.8c12.1,0,20.3,2.2,25,6.7
	c4.9,4.6,6.4,11.9,4.5,21.8l-8.6,45.3c-0.2,0.9-1,1.6-1.9,1.6H320.9L320.9,345.7z"/>
<path id="path3502" class="st1" d="M218.7,320.4c8.2,0,14.4-1.5,18.3-4.4c3.8-2.9,6.5-7.9,7.9-14.9c1.3-6.5,0.8-11.1-1.5-13.6
	c-2.3-2.5-7.4-3.8-14.9-3.8h-13.2l-7.3,36.7H218.7z M175.7,365.7c-0.6,0-1.2-0.3-1.6-0.7c-0.4-0.5-0.5-1.1-0.4-1.7L193,266
	c0.2-0.9,1-1.6,2-1.6h41.7c13.1,0,22.8,3.5,29,10.3c6.2,6.9,8.1,16.5,5.7,28.7c-1,4.9-2.7,9.5-5,13.6c-2.3,4.1-5.4,7.9-9.2,11.3
	c-4.5,4.1-9.6,7.1-15.2,8.9c-5.5,1.7-12.5,2.6-20.8,2.6h-16.9l-4.8,24.3c-0.2,0.9-1,1.6-2,1.6L175.7,365.7L175.7,365.7z"/>
<path id="path3502_1_" class="st1" d="M392.6,325.8c8.2,0,14.4-1.5,18.3-4.4c3.8-2.9,6.5-7.9,7.9-14.9c1.3-6.5,0.8-11.1-1.5-13.6
	c-2.3-2.5-7.4-3.8-14.9-3.8h-13.2l-7.3,36.7H392.6z M349.6,371.1c-0.6,0-1.2-0.3-1.6-0.7c-0.4-0.5-0.5-1.1-0.4-1.7l19.3-97.3
	c0.2-0.9,1-1.6,2-1.6h41.7c13.1,0,22.8,3.5,29,10.3c6.2,6.9,8.1,16.5,5.7,28.7c-1,4.9-2.7,9.5-5,13.6c-2.3,4.1-5.4,7.9-9.2,11.3
	c-4.5,4.1-9.6,7.1-15.2,8.9c-5.5,1.7-12.5,2.6-20.8,2.6h-16.9l-4.8,24.3c-0.2,0.9-1,1.6-2,1.6L349.6,371.1L349.6,371.1z"/>
</svg>
